<!-- icon666.com - MILLIONS vector ICONS FREE --><svg viewBox="0 0 128 128" xmlns="http://www.w3.org/2000/svg"><g><path d="m16.636 87c-2.715 4.831-3.857 9.628 0 14.311h95.091a12.368 12.368 0 0 0 0-14.311z" fill="#6d1a07"></path><path d="m109.727 101.313h-91.454a5 5 0 0 0 -5 5v.871a12 12 0 0 0 12 12h77.454a12 12 0 0 0 12-12v-.871a5 5 0 0 0 -5-5z" fill="#dfaf65" style="fill: rgb(255, 163, 26);"></path><path d="m16.636 55.119c-2.911 3.832-3.635 8.369 0 14.312h95.091c3.366-4.194 2.7-9.079 0-14.312z" fill="#6d1a07"></path><path d="m13.234 45.41c-6.1 7.259-.783 14.252 7.979 12.745a11.436 11.436 0 0 1 8.04 1.436 18 18 0 0 0 17.479.8 12.119 12.119 0 0 1 10.605-.085 15.8 15.8 0 0 0 14.888.064 12.287 12.287 0 0 1 10.594-.444 16.673 16.673 0 0 0 15.975-.681 11.617 11.617 0 0 1 7.93-1.245c9.934 1.918 13.209-5.9 8.631-13.34z" fill="#9eb606" style="fill: rgb(221, 255, 0);"></path><path d="m13.234 77.293c-6.1 7.259-.783 14.251 7.979 12.745a11.431 11.431 0 0 1 8.04 1.436 18 18 0 0 0 17.479.8 12.116 12.116 0 0 1 10.605-.084 15.793 15.793 0 0 0 14.888.063 12.287 12.287 0 0 1 10.594-.444 16.673 16.673 0 0 0 15.975-.68 11.612 11.612 0 0 1 7.93-1.256c9.934 1.918 13.209-5.9 8.631-13.339z" fill="#9eb606" style="fill: rgb(221, 255, 0);"></path><path d="m64 8.816c-31.11 0-48.785 19.48-52.458 35.556a5 5 0 0 0 4.888 6.084h95.14a5 5 0 0 0 4.888-6.084c-3.673-16.072-21.348-35.556-52.458-35.556z" fill="#dfaf65" style="fill: rgb(255, 163, 26);"></path><path d="m112.545 69.431h-97.091a7 7 0 1 0 0 14h97.091a7 7 0 0 0 0-14z" fill="#bc1e13" style="fill: rgb(255, 10, 10);"></path><g><path d="m49.546 87.029 14.341-17.603h-28.683z" fill="#e9bf31" style="fill: rgb(255, 196, 0);"></path><path d="m74.055 92.428 18.741-23.002h-37.481z" fill="#f9c702" style="fill: rgb(255, 204, 0);"></path></g></g><g><path d="m69.59 117.43h-22.94a1.75 1.75 0 0 0 0 3.5h22.94a1.75 1.75 0 0 0 0-3.5z" fill="#000000"></path><path d="m83.68 117.43h-4.97a1.75 1.75 0 1 0 0 3.5h4.97a1.75 1.75 0 0 0 0-3.5z" fill="#000000"></path><path d="m114.687 67.955a12.949 12.949 0 0 0 .383-9.282 7.961 7.961 0 0 0 3.3-3.708 11.024 11.024 0 0 0 -.138-8.376 6.664 6.664 0 0 0 -.066-2.607c-4.193-18.344-24.144-36.916-54.166-36.916s-49.972 18.572-54.165 36.916a6.668 6.668 0 0 0 .094 3.318 9.066 9.066 0 0 0 -.6 7.043 8.165 8.165 0 0 0 3.574 4.227 13.208 13.208 0 0 0 .931 9.266 8.74 8.74 0 0 0 -4.883 14.443 8 8 0 0 0 4.168 8.3 11.737 11.737 0 0 0 1.088 10.349 6.738 6.738 0 0 0 -2.687 5.378v.87a13.765 13.765 0 0 0 13.75 13.75h12.27a1.75 1.75 0 0 0 0-3.5h-12.27a10.261 10.261 0 0 1 -10.25-10.25v-.87a3.254 3.254 0 0 1 3.25-3.25h91.46a3.254 3.254 0 0 1 3.25 3.25v.87a10.261 10.261 0 0 1 -10.25 10.25h-9.93a1.75 1.75 0 0 0 0 3.5h9.93a13.765 13.765 0 0 0 13.75-13.75v-.87a6.737 6.737 0 0 0 -2.571-5.291 13.683 13.683 0 0 0 1.318-10.557 8.536 8.536 0 0 0 3.871-8.243 8.728 8.728 0 0 0 -4.411-14.264zm-101.439-23.193c3.141-13.745 19.252-34.196 50.752-34.196s47.611 20.451 50.752 34.2a3.191 3.191 0 0 1 -.623 2.711 3.256 3.256 0 0 1 -2.559 1.233h-95.14a3.256 3.256 0 0 1 -2.559-1.233 3.187 3.187 0 0 1 -.623-2.715zm-.622 8.388a4.7 4.7 0 0 1 -.209-2.269 6.73 6.73 0 0 0 4.013 1.325h95.14a6.731 6.731 0 0 0 4.056-1.356 6.079 6.079 0 0 1 -.461 2.7 4.646 4.646 0 0 1 -2.838 2.548 10.028 10.028 0 0 1 -5.276.168 13.392 13.392 0 0 0 -9.127 1.458 14.915 14.915 0 0 1 -14.38.607 14.017 14.017 0 0 0 -12.112.472 13.943 13.943 0 0 1 -13.306-.062 13.735 13.735 0 0 0 -12.144.072 16.237 16.237 0 0 1 -15.806-.713 13.2 13.2 0 0 0 -9.261-1.669 9.735 9.735 0 0 1 -5.2-.38 5.039 5.039 0 0 1 -3.089-2.901zm46.974 24.309 3.439 4.221h-6.876zm-10.055 6.8-10.661-13.079h15.6l2.858 3.508zm9.455-13.079h30.11l-15.054 18.477zm-3.685-3.5c-.007 0-.013 0-.021 0h-37.649c-1.58-2.865-2.046-5.448-1.441-7.841a14.21 14.21 0 0 0 5.3.046 9.71 9.71 0 0 1 6.815 1.189 19.261 19.261 0 0 0 10.257 2.96 20.811 20.811 0 0 0 8.9-2.054 10.4 10.4 0 0 1 9.071-.107 17.443 17.443 0 0 0 16.453.062 10.538 10.538 0 0 1 9.095-.411 18.434 18.434 0 0 0 17.554-.752 9.863 9.863 0 0 1 6.736-1.063 14.936 14.936 0 0 0 5.382.141c.869 3.074.573 5.607-.923 7.83h-18.028c-.007 0-.013 0-.02 0zm-45.115 8.75a5.251 5.251 0 0 1 5.25-5.25h18.919l8.564 10.5h-27.483a5.264 5.264 0 0 1 -5.25-5.25zm2.331 8.243a8.737 8.737 0 0 0 2.919.507h30.337l2.34 2.869c.025.035.06.062.088.095a1.583 1.583 0 0 0 .118.127 1.759 1.759 0 0 0 .189.156l.075.049a1.647 1.647 0 0 0 .251.136 1.806 1.806 0 0 0 .71.153 1.736 1.736 0 0 0 .931-.287c.025-.015.049-.029.073-.046a1.762 1.762 0 0 0 .2-.172c.016-.016.032-.031.048-.048.038-.04.083-.074.118-.117l2.376-2.916h12.589l4.771 5.855a13.9 13.9 0 0 1 -12.541-.41 13.815 13.815 0 0 0 -12.143.076 16.192 16.192 0 0 1 -15.8-.715 13.209 13.209 0 0 0 -9.259-1.669 10.022 10.022 0 0 1 -5.018-.307 4.938 4.938 0 0 1 -3.372-3.336zm98.207 14.887h-93.238a8.253 8.253 0 0 1 -1.083-7.8 14.373 14.373 0 0 0 5.091.009 9.715 9.715 0 0 1 6.814 1.188 19.222 19.222 0 0 0 10.259 2.97 20.742 20.742 0 0 0 8.9-2.061 10.464 10.464 0 0 1 9.075-.108 17.466 17.466 0 0 0 16.433.078l.019-.008a1.742 1.742 0 0 0 2.406-.291l.6-.737a9.885 9.885 0 0 1 6.086.6 19.6 19.6 0 0 0 8.161 1.871 18.794 18.794 0 0 0 9.4-2.621 9.866 9.866 0 0 1 6.733-1.054 14.683 14.683 0 0 0 5.547.113 10.326 10.326 0 0 1 -1.203 7.851zm1.713-11.613a9.975 9.975 0 0 1 -5.4.214 13.381 13.381 0 0 0 -9.127 1.448 14.885 14.885 0 0 1 -14.384.605 12.992 12.992 0 0 0 -4.517-1.114l3.2-3.921h30.327a8.721 8.721 0 0 0 2.873-.494 4.649 4.649 0 0 1 -2.972 3.262zm3.812-7.8-.038.042a1.519 1.519 0 0 0 -.13.108l-.009.008a5.21 5.21 0 0 1 -3.535 1.378h-27.481l8.555-10.5h18.925a5.251 5.251 0 0 1 3.713 8.963z" fill="#000000"></path></g></svg>